<?xml version="1.0" encoding="UTF-8"?>
<svg id="Layer_2" data-name="Layer 2" xmlns="http://www.w3.org/2000/svg" viewBox="0 0 962.35 201.29">
  <defs>
    <style>
      .cls-1 {
        fill: #fff;
      }

      .cls-2 {
        fill: #bf3131;
      }
    </style>
  </defs>
  <g id="Layer_1-2" data-name="Layer 1">
    <g>
      <path class="cls-2" d="M731.95,84.47c-10.94,11.09-16.41,24.87-16.41,41.36v-57.99h58.21c-16.92,0-30.85,5.54-41.8,16.63Z"/>
      <path class="cls-2" d="M732.17,167.19c11.24,10.8,26.12,16.19,44.65,16.19h-61.28v-57.55c0,16.63,5.54,30.42,16.63,41.36Z"/>
      <path class="cls-2" d="M794.76,113.79h-42.02c3.07-10.21,10.22-15.32,21.45-15.32s17.8,5.11,20.57,15.32Z"/>
      <path class="cls-2" d="M860.31,124.46l-26.75,37.68-5.99,8.44-9.09,12.8h-41.66c20.71,0,36.4-6.78,47.05-20.35l-20.64-14.45-5.62-3.93c-4.33,3.98-9.31,6.41-14.96,7.28-1.6,.26-3.25,.38-4.96,.38-12.69,0-20.86-4.45-24.51-13.35h75.5c1.02-3.94,1.54-8.46,1.54-13.57,0-16.63-5.33-30.34-15.98-41.14-10.65-10.94-24.15-16.41-40.49-16.41h46.35l40.21,56.62Z"/>
      <polygon class="cls-2" points="881.88 124.46 840.05 183.38 829.09 183.38 870.92 124.46 830.71 67.84 841.67 67.84 881.88 124.46"/>
      <path class="cls-2" d="M787.78,183.38c16.42,0,29.69-4.26,39.79-12.8l-9.09,12.8h-30.7Z"/>
      <polygon class="cls-2" points="898.8 93.95 880.31 67.84 917.29 67.84 898.8 93.95"/>
      <polygon class="cls-2" points="898.8 154.96 918.91 183.38 878.7 183.38 898.8 154.96"/>
      <polygon class="cls-2" points="962.35 67.84 962.35 183.38 920.52 124.46 962.35 67.84"/>
      <g>
        <path class="cls-2" d="M365.89,37.56c-11.09-10.63-24.8-15.94-41.13-15.94h-62.86V183.38h41.37v-48.53h21.49c16.33,0,30.04-5.31,41.13-15.94,11.1-10.63,16.64-24.19,16.64-40.67s-5.54-30.05-16.64-40.68Zm-29.46,53.15c-3.16,3.24-7.05,4.86-11.67,4.86h-21.49V61.13h21.49c4.62,0,8.51,1.59,11.67,4.74,3.15,3.16,4.74,7.28,4.74,12.37s-1.59,9.24-4.74,12.47Z"/>
        <path class="cls-2" d="M492.07,82.39c-11.86-11.86-26.42-17.79-43.68-17.79s-31.5,5.93-43.67,17.79c-12.02,11.87-18.03,26.27-18.03,43.22s6.01,31.74,18.03,43.45c11.86,11.71,26.42,17.56,43.67,17.56s31.97-5.85,43.68-17.56c12.02-11.71,18.03-26.19,18.03-43.45s-6.01-31.35-18.03-43.22Zm-26.92,60.55c-4.39,4.47-9.98,6.7-16.76,6.7s-12.13-2.27-16.52-6.81c-4.39-4.55-6.59-10.29-6.59-17.22s2.2-12.67,6.59-17.22c4.39-4.54,9.9-6.81,16.52-6.81s12.37,2.23,16.76,6.7c4.39,4.47,6.59,10.25,6.59,17.33s-2.2,12.87-6.59,17.33Z"/>
        <path class="cls-2" d="M600.22,67.84v61.47c0,6.78-1.65,11.98-4.96,15.6-3.32,3.62-7.98,5.43-13.99,5.43-5.39,0-9.63-1.58-12.71-4.74-3.08-3.16-4.62-7.66-4.62-13.52V67.84h-38.36v69.09c0,15.72,3.89,27.93,11.67,36.63,7.78,8.71,18.06,13.06,30.85,13.06,14.48,0,25.19-4.93,32.12-14.79v11.55h38.37V67.84h-38.37Z"/>
        <path class="cls-2" d="M660.77,14.68V183.38h38.36V14.68h-38.36Z"/>
      </g>
    </g>
    <rect class="cls-2" width="201.29" height="201.29" rx="48.48" ry="48.48"/>
    <g>
      <path class="cls-1" d="M135.44,47.3c-8.99-9-21.41-14.57-35.12-14.57h-32.01c-9.39,0-17,7.62-17,17.02v113.24c0,1.41,.52,2.7,1.39,3.68l24.88-52.18,13.34-30.52c.38-.87,.83-1.7,1.32-2.48-.32-5.05-5.89-8.93-8.01-10.22-.44-.27-.54-.86-.21-1.26,4.72-5.89,11.65-3.29,11.65-3.29l-4.14-6.03c-.26-.38-.17-.91,.21-1.18,12.04-8.65,19.21,1.65,19.21,1.65v-6.37c0-.52,.46-.92,.96-.85,15.69,2.17,16.19,17.07,16.19,17.07,.07-1.89,.75-3.59,1.26-4.59,.26-.51,.93-.63,1.35-.23,1.87,1.82,6.22,6.74,4.3,11.73-2.36,6.17-9.92,6.23-10.21,6.23h0c.76,1.79,1.25,3.72,1.41,5.73l12.12,6.91-12.23-.29,12.16,1.06-9.33,3.93s5.82,9.79,.72,12.69c-1.56,.89-2.99,.79-4.21,.23l-.26,7.21-.38,4.14c15.04-8.55,25.19-24.73,25.19-43.28,0-13.73-5.56-26.17-14.55-35.17Z"/>
      <ellipse class="cls-1" cx="107.29" cy="94.06" rx="3.15" ry="3.16"/>
      <path class="cls-1" d="M85.87,122.32c-11.14,5.22-25.27,29.74-33.01,44.53,1.01,1.05,2.43,1.7,4,1.7h23.21c3.07,0,5.56-2.49,5.56-5.56v-26.54c0-2.34,1.9-4.25,4.24-4.25h10.45c5.22,0,10.25-.81,14.97-2.3-13.51,1.05-23.23-3.25-29.42-7.58Z"/>
    </g>
  </g>
</svg>